<?xml version="1.0" encoding="UTF-8" standalone="no"?>
<!-- Created with Inkscape (http://www.inkscape.org/) -->

<svg
   xmlns:dc="http://purl.org/dc/elements/1.1/"
   xmlns:cc="http://creativecommons.org/ns#"
   xmlns:rdf="http://www.w3.org/1999/02/22-rdf-syntax-ns#"
   xmlns:svg="http://www.w3.org/2000/svg"
   xmlns="http://www.w3.org/2000/svg"
   xmlns:sodipodi="http://sodipodi.sourceforge.net/DTD/sodipodi-0.dtd"
   xmlns:inkscape="http://www.inkscape.org/namespaces/inkscape"
   width="128px"
   height="128px"
   viewBox="0 0 128 128"
   version="1.1"
   id="SVGRoot"
   inkscape:version="0.92.4 (5da689c313, 2019-01-14)"
   sodipodi:docname="logo.svg"
   inkscape:export-filename="C:\Users\martisb\repos\block-juggler\images\icon.png"
   inkscape:export-xdpi="96"
   inkscape:export-ydpi="96">
  <defs
     id="defs31">
    <style
       id="style73"
       type="text/css">
   <![CDATA[
    .fil0 {fill:black;fill-rule:nonzero}
   ]]>
  </style>
  </defs>
  <sodipodi:namedview
     id="base"
     pagecolor="#202135"
     bordercolor="#666666"
     borderopacity="1.0"
     inkscape:pageopacity="0"
     inkscape:pageshadow="2"
     inkscape:zoom="4.1875"
     inkscape:cx="24.955224"
     inkscape:cy="64"
     inkscape:document-units="px"
     inkscape:current-layer="layer1"
     showgrid="false"
     inkscape:window-width="1366"
     inkscape:window-height="705"
     inkscape:window-x="-8"
     inkscape:window-y="-8"
     inkscape:window-maximized="1"
     inkscape:grid-bbox="true"
     inkscape:pagecheckerboard="false" />
  <metadata
     id="metadata34">
    <rdf:RDF>
      <cc:Work
         rdf:about="">
        <dc:format>image/svg+xml</dc:format>
        <dc:type
           rdf:resource="http://purl.org/dc/dcmitype/StillImage" />
        <dc:title></dc:title>
      </cc:Work>
    </rdf:RDF>
  </metadata>
  <g
     inkscape:label="Layer 1"
     inkscape:groupmode="layer"
     id="layer1">
    <g
       style="clip-rule:evenodd;fill-rule:evenodd;image-rendering:optimizeQuality;shape-rendering:geometricPrecision;text-rendering:geometricPrecision"
       id="g114"
       transform="matrix(0.00671352,0,0,0.00671352,17.932827,3.8000002e-7)">
      <g
         id="Layer_x0020_1">
  <metadata
   id="CorelCorpID_0Corel-Layer" />

  <g
   id="vc025999.ai">
   <g
   id="g92">
    <g
   id="g90">
     <path
   id="path78"
   d="m 8489,9496 c 0,0 695,-487 1002,-1203 308,-716 230,-1648 -401,-1604 -630,44 -1804,1069 -1804,1069 l 468,401 c 0,0 -585,1053 -401,1404 184,351 1136,-67 1136,-67 z"
   class="fil0"
   inkscape:connector-curvature="0"
   style="fill:#a071c6;fill-rule:nonzero;fill-opacity:1" />

     <path
   id="path80"
   d="m 1991,9242 c 0,0 2271,1917 4559,1737 2286,-181 3938,-1524 4929,-3292 991,-1767 965,-3859 965,-3859 0,0 1567,1956 1233,4396 -334,2439 -1662,4181 -1662,4181 0,0 438,2898 322,4234 -117,1337 -1377,2226 -1377,2226 0,0 -335,-1834 -1604,-2406 -1268,-571 -2493,207 -3773,824 -1281,616 -2611,1068 -3444,1382 -834,314 -2139,401 -2139,401 0,0 1788,-1504 2740,-3008 953,-1503 1069,-3007 1069,-3007 0,0 -1102,-1087 -1603,-1871 -502,-786 -215,-1938 -215,-1938 z"
   class="fil0"
   inkscape:connector-curvature="0"
   style="fill:#a071c6;fill-rule:nonzero;fill-opacity:1" />

     <path
   id="path82"
   d="m 1892,8449 c 602,0 1092,-490 1092,-1092 0,-603 -490,-1093 -1092,-1093 -603,0 -1093,490 -1093,1093 0,602 490,1092 1093,1092 z"
   class="fil0"
   inkscape:connector-curvature="0"
   style="fill:#d9eacc;fill-rule:nonzero;fill-opacity:1" />

     <path
   id="path84"
   d="m 3437,4516 c 603,0 1093,-490 1093,-1094 0,-602 -490,-1092 -1093,-1092 -602,0 -1092,490 -1092,1092 0,604 490,1094 1092,1094 z"
   class="fil0"
   inkscape:connector-curvature="0"
   style="fill:#e8eacc;fill-rule:nonzero;fill-opacity:1" />

     <path
   id="path86"
   d="m 7256,2185 c 603,0 1093,-490 1093,-1092 C 8349,490 7859,0 7256,0 6654,0 6164,490 6164,1093 c 0,602 490,1092 1092,1092 z"
   class="fil0"
   inkscape:connector-curvature="0"
   style="fill:#eaddcc;fill-rule:nonzero;fill-opacity:1" />

     <path
   id="path88"
   d="m 11008,3264 c 603,0 1093,-490 1093,-1093 0,-602 -490,-1092 -1093,-1092 -602,0 -1092,490 -1092,1092 0,603 490,1093 1092,1093 z"
   class="fil0"
   inkscape:connector-curvature="0"
   style="fill:#eacecc;fill-rule:nonzero;fill-opacity:1" />

    </g>

   </g>

  </g>

 </g>
    </g>
  </g>
</svg>
